<svg width="15" height="15" viewBox="0 0 15 15" fill="none" xmlns="http://www.w3.org/2000/svg">
<path d="M1.46341 15C1.06098 15 0.716341 14.8568 0.429512 14.5703C0.143171 14.2843 0 13.9403 0 13.5384V3.30694C0 2.90499 0.143171 2.56078 0.429512 2.2743C0.716341 1.98831 1.06098 1.84531 1.46341 1.84531H7.9939L6.53049 3.30694H1.46341V13.5384H11.7073V8.4592L13.1707 6.99756V13.5384C13.1707 13.9403 13.0276 14.2843 12.7412 14.5703C12.4544 14.8568 12.1098 15 11.7073 15H1.46341ZM9.64024 2.26553L10.6829 3.28867L5.85366 8.11206V9.15347H6.87805L11.7256 4.31181L12.7683 5.33496L7.5 10.6151H4.39024V7.50913L9.64024 2.26553ZM12.7683 5.33496L9.64024 2.26553L11.4695 0.43849C11.7622 0.146163 12.1129 0 12.5217 0C12.93 0 13.2744 0.146163 13.5549 0.43849L14.5793 1.4799C14.8598 1.76005 15 2.1011 15 2.50304C15 2.90499 14.8598 3.24604 14.5793 3.52619L12.7683 5.33496Z" fill="black"/>
</svg>
